STARTFONT 2.1
COMMENT https://github.com/hughpyle/ASR33/
COMMENT Bitmap font based on the Digital Equipment Corp VT100 terminal
COMMENT source data from https://www.pcjs.org/devices/pc8080/rom/vt100/
FONT -dec-vt100
SIZE 10 75 75
FONTBOUNDINGBOX 9 10 0 21
STARTPROPERTIES 11
FOUNDRY "Digital Equipment Corporation"
PIXEL_SIZE 10
POINT_SIZE 60
RESOLUTION_X 75
RESOLUTION_Y 75
CHARSET_REGISTRY ""
CHARSET_ENCODING ""
FONT_ASCENT 7
FONT_DESCENT 3
DEFAULT_CHAR 0
COPYRIGHT "This BDF version is copyright (c) 2018 by Hugh Pyle.  Distributed under the MIT license."
ENDPROPERTIES
CHARS 128
STARTCHAR U+0000
ENCODING 0
SWIDTH 1125 0
DWIDTH 9 0
BBX 9 10 0 -3
BITMAP
0000
0000
0000
0000
0000
0000
0000
0000
0000
0000
ENDCHAR
STARTCHAR U+0001
ENCODING 1
SWIDTH 1125 0
DWIDTH 9 0
BBX 9 10 0 -3
BITMAP
1000
3800
7c00
fe00
7c00
3800
1000
0000
0000
0000
ENDCHAR
STARTCHAR U+0002
ENCODING 2
SWIDTH 1125 0
DWIDTH 9 0
BBX 9 10 0 -3
BITMAP
9200
4400
9200
4400
9200
4400
9200
0000
0000
0000
ENDCHAR
STARTCHAR U+0003
ENCODING 3
SWIDTH 1125 0
DWIDTH 9 0
BBX 9 10 0 -3
BITMAP
8800
8800
f800
8800
8800
3e00
0800
0800
0800
0000
ENDCHAR
STARTCHAR U+0004
ENCODING 4
SWIDTH 1125 0
DWIDTH 9 0
BBX 9 10 0 -3
BITMAP
f000
8000
e000
8000
9e00
1000
1c00
1000
1000
0000
ENDCHAR
STARTCHAR U+0005
ENCODING 5
SWIDTH 1125 0
DWIDTH 9 0
BBX 9 10 0 -3
BITMAP
7800
8000
8000
7800
3c00
2200
3c00
2200
2200
0000
ENDCHAR
STARTCHAR U+0006
ENCODING 6
SWIDTH 1125 0
DWIDTH 9 0
BBX 9 10 0 -3
BITMAP
8000
8000
8000
f800
3e00
2000
3c00
2000
2000
0000
ENDCHAR
STARTCHAR U+0007
ENCODING 7
SWIDTH 1125 0
DWIDTH 9 0
BBX 9 10 0 -3
BITMAP
3800
4400
4400
3800
0000
0000
0000
0000
0000
0000
ENDCHAR
STARTCHAR U+0008
ENCODING 8
SWIDTH 1125 0
DWIDTH 9 0
BBX 9 10 0 -3
BITMAP
0000
1000
1000
fe00
1000
1000
fe00
0000
0000
0000
ENDCHAR
STARTCHAR U+0009
ENCODING 9
SWIDTH 1125 0
DWIDTH 9 0
BBX 9 10 0 -3
BITMAP
8800
c800
a800
9800
8800
2000
2000
2000
3e00
0000
ENDCHAR
STARTCHAR U+000a
ENCODING 10
SWIDTH 1125 0
DWIDTH 9 0
BBX 9 10 0 -3
BITMAP
8800
8800
5000
2000
3e00
0800
0800
0800
0800
0000
ENDCHAR
STARTCHAR U+000b
ENCODING 11
SWIDTH 1125 0
DWIDTH 9 0
BBX 9 10 0 -3
BITMAP
1000
1000
1000
f000
0000
0000
0000
0000
0000
0000
ENDCHAR
STARTCHAR U+000c
ENCODING 12
SWIDTH 1125 0
DWIDTH 9 0
BBX 9 10 0 -3
BITMAP
0000
0000
0000
f000
1000
1000
1000
1000
1000
0000
ENDCHAR
STARTCHAR U+000d
ENCODING 13
SWIDTH 1125 0
DWIDTH 9 0
BBX 9 10 0 -3
BITMAP
0000
0000
0000
1f80
1000
1000
1000
1000
1000
0000
ENDCHAR
STARTCHAR U+000e
ENCODING 14
SWIDTH 1125 0
DWIDTH 9 0
BBX 9 10 0 -3
BITMAP
1000
1000
1000
1f80
0000
0000
0000
0000
0000
0000
ENDCHAR
STARTCHAR U+000f
ENCODING 15
SWIDTH 1125 0
DWIDTH 9 0
BBX 9 10 0 -3
BITMAP
1000
1000
1000
ff80
1000
1000
1000
1000
1000
0000
ENDCHAR
STARTCHAR U+0010
ENCODING 16
SWIDTH 1125 0
DWIDTH 9 0
BBX 9 10 0 -3
BITMAP
0000
0000
0000
0000
0000
0000
0000
0000
0000
0000
ENDCHAR
STARTCHAR U+0011
ENCODING 17
SWIDTH 1125 0
DWIDTH 9 0
BBX 9 10 0 -3
BITMAP
0000
ff80
0000
0000
0000
0000
0000
0000
0000
0000
ENDCHAR
STARTCHAR U+0012
ENCODING 18
SWIDTH 1125 0
DWIDTH 9 0
BBX 9 10 0 -3
BITMAP
0000
0000
0000
ff80
0000
0000
0000
0000
0000
0000
ENDCHAR
STARTCHAR U+0013
ENCODING 19
SWIDTH 1125 0
DWIDTH 9 0
BBX 9 10 0 -3
BITMAP
0000
0000
0000
0000
0000
ff80
0000
0000
0000
0000
ENDCHAR
STARTCHAR U+0014
ENCODING 20
SWIDTH 1125 0
DWIDTH 9 0
BBX 9 10 0 -3
BITMAP
0000
0000
0000
0000
0000
0000
0000
ff80
0000
0000
ENDCHAR
STARTCHAR U+0015
ENCODING 21
SWIDTH 1125 0
DWIDTH 9 0
BBX 9 10 0 -3
BITMAP
1000
1000
1000
1f80
1000
1000
1000
1000
1000
0000
ENDCHAR
STARTCHAR U+0016
ENCODING 22
SWIDTH 1125 0
DWIDTH 9 0
BBX 9 10 0 -3
BITMAP
1000
1000
1000
f000
1000
1000
1000
1000
1000
0000
ENDCHAR
STARTCHAR U+0017
ENCODING 23
SWIDTH 1125 0
DWIDTH 9 0
BBX 9 10 0 -3
BITMAP
1000
1000
1000
ff80
0000
0000
0000
0000
0000
0000
ENDCHAR
STARTCHAR U+0018
ENCODING 24
SWIDTH 1125 0
DWIDTH 9 0
BBX 9 10 0 -3
BITMAP
0000
0000
0000
ff80
1000
1000
1000
1000
1000
0000
ENDCHAR
STARTCHAR U+0019
ENCODING 25
SWIDTH 1125 0
DWIDTH 9 0
BBX 9 10 0 -3
BITMAP
1000
1000
1000
1000
1000
1000
1000
1000
1000
0000
ENDCHAR
STARTCHAR U+001a
ENCODING 26
SWIDTH 1125 0
DWIDTH 9 0
BBX 9 10 0 -3
BITMAP
0200
0800
2000
8000
2000
0800
0200
fe00
0000
0000
ENDCHAR
STARTCHAR U+001b
ENCODING 27
SWIDTH 1125 0
DWIDTH 9 0
BBX 9 10 0 -3
BITMAP
8000
2000
0800
0200
0800
2000
8000
fe00
0000
0000
ENDCHAR
STARTCHAR U+001c
ENCODING 28
SWIDTH 1125 0
DWIDTH 9 0
BBX 9 10 0 -3
BITMAP
0000
0000
fe00
2400
2400
2400
4400
0000
0000
0000
ENDCHAR
STARTCHAR U+001d
ENCODING 29
SWIDTH 1125 0
DWIDTH 9 0
BBX 9 10 0 -3
BITMAP
0200
0400
fe00
1000
fe00
4000
8000
0000
0000
0000
ENDCHAR
STARTCHAR U+001e
ENCODING 30
SWIDTH 1125 0
DWIDTH 9 0
BBX 9 10 0 -3
BITMAP
1c00
2200
2000
f800
2000
7800
a600
4000
0000
0000
ENDCHAR
STARTCHAR U+001f
ENCODING 31
SWIDTH 1125 0
DWIDTH 9 0
BBX 9 10 0 -3
BITMAP
0000
0000
0000
1000
0000
0000
0000
0000
0000
0000
ENDCHAR
STARTCHAR U+0020
ENCODING 32
SWIDTH 1125 0
DWIDTH 9 0
BBX 9 10 0 -3
BITMAP
0000
0000
0000
0000
0000
0000
0000
0000
0000
0000
ENDCHAR
STARTCHAR U+0021
ENCODING 33
SWIDTH 1125 0
DWIDTH 9 0
BBX 9 10 0 -3
BITMAP
1000
1000
1000
1000
1000
0000
1000
0000
0000
0000
ENDCHAR
STARTCHAR U+0022
ENCODING 34
SWIDTH 1125 0
DWIDTH 9 0
BBX 9 10 0 -3
BITMAP
2400
2400
2400
0000
0000
0000
0000
0000
0000
0000
ENDCHAR
STARTCHAR U+0023
ENCODING 35
SWIDTH 1125 0
DWIDTH 9 0
BBX 9 10 0 -3
BITMAP
4800
4800
fc00
4800
fc00
4800
4800
0000
0000
0000
ENDCHAR
STARTCHAR U+0024
ENCODING 36
SWIDTH 1125 0
DWIDTH 9 0
BBX 9 10 0 -3
BITMAP
1000
7c00
9000
7c00
1200
7c00
1000
0000
0000
0000
ENDCHAR
STARTCHAR U+0025
ENCODING 37
SWIDTH 1125 0
DWIDTH 9 0
BBX 9 10 0 -3
BITMAP
c200
c400
0800
1000
2000
4600
8600
0000
0000
0000
ENDCHAR
STARTCHAR U+0026
ENCODING 38
SWIDTH 1125 0
DWIDTH 9 0
BBX 9 10 0 -3
BITMAP
7000
8800
8800
7000
8a00
8400
7a00
0000
0000
0000
ENDCHAR
STARTCHAR U+0027
ENCODING 39
SWIDTH 1125 0
DWIDTH 9 0
BBX 9 10 0 -3
BITMAP
1800
1000
2000
0000
0000
0000
0000
0000
0000
0000
ENDCHAR
STARTCHAR U+0028
ENCODING 40
SWIDTH 1125 0
DWIDTH 9 0
BBX 9 10 0 -3
BITMAP
0800
1000
2000
2000
2000
1000
0800
0000
0000
0000
ENDCHAR
STARTCHAR U+0029
ENCODING 41
SWIDTH 1125 0
DWIDTH 9 0
BBX 9 10 0 -3
BITMAP
2000
1000
0800
0800
0800
1000
2000
0000
0000
0000
ENDCHAR
STARTCHAR U+002a
ENCODING 42
SWIDTH 1125 0
DWIDTH 9 0
BBX 9 10 0 -3
BITMAP
0000
4400
2800
fe00
2800
4400
0000
0000
0000
0000
ENDCHAR
STARTCHAR U+002b
ENCODING 43
SWIDTH 1125 0
DWIDTH 9 0
BBX 9 10 0 -3
BITMAP
0000
1000
1000
fe00
1000
1000
0000
0000
0000
0000
ENDCHAR
STARTCHAR U+002c
ENCODING 44
SWIDTH 1125 0
DWIDTH 9 0
BBX 9 10 0 -3
BITMAP
0000
0000
0000
0000
0000
3000
2000
4000
0000
0000
ENDCHAR
STARTCHAR U+002d
ENCODING 45
SWIDTH 1125 0
DWIDTH 9 0
BBX 9 10 0 -3
BITMAP
0000
0000
0000
fe00
0000
0000
0000
0000
0000
0000
ENDCHAR
STARTCHAR U+002e
ENCODING 46
SWIDTH 1125 0
DWIDTH 9 0
BBX 9 10 0 -3
BITMAP
0000
0000
0000
0000
0000
3000
3000
0000
0000
0000
ENDCHAR
STARTCHAR U+002f
ENCODING 47
SWIDTH 1125 0
DWIDTH 9 0
BBX 9 10 0 -3
BITMAP
0200
0400
0800
1000
2000
4000
8000
0000
0000
0000
ENDCHAR
STARTCHAR U+0030
ENCODING 48
SWIDTH 1125 0
DWIDTH 9 0
BBX 9 10 0 -3
BITMAP
3800
4400
8200
8200
8200
4400
3800
0000
0000
0000
ENDCHAR
STARTCHAR U+0031
ENCODING 49
SWIDTH 1125 0
DWIDTH 9 0
BBX 9 10 0 -3
BITMAP
1000
3000
5000
1000
1000
1000
7c00
0000
0000
0000
ENDCHAR
STARTCHAR U+0032
ENCODING 50
SWIDTH 1125 0
DWIDTH 9 0
BBX 9 10 0 -3
BITMAP
7800
8400
0200
1c00
6000
8000
fe00
0000
0000
0000
ENDCHAR
STARTCHAR U+0033
ENCODING 51
SWIDTH 1125 0
DWIDTH 9 0
BBX 9 10 0 -3
BITMAP
fe00
0400
0800
1c00
0200
8200
7c00
0000
0000
0000
ENDCHAR
STARTCHAR U+0034
ENCODING 52
SWIDTH 1125 0
DWIDTH 9 0
BBX 9 10 0 -3
BITMAP
0800
1800
2800
4800
fe00
0800
0800
0000
0000
0000
ENDCHAR
STARTCHAR U+0035
ENCODING 53
SWIDTH 1125 0
DWIDTH 9 0
BBX 9 10 0 -3
BITMAP
fe00
8000
bc00
c200
0200
8200
7c00
0000
0000
0000
ENDCHAR
STARTCHAR U+0036
ENCODING 54
SWIDTH 1125 0
DWIDTH 9 0
BBX 9 10 0 -3
BITMAP
3c00
4200
8000
bc00
c200
4200
3c00
0000
0000
0000
ENDCHAR
STARTCHAR U+0037
ENCODING 55
SWIDTH 1125 0
DWIDTH 9 0
BBX 9 10 0 -3
BITMAP
fe00
0200
0400
0800
1000
2000
4000
0000
0000
0000
ENDCHAR
STARTCHAR U+0038
ENCODING 56
SWIDTH 1125 0
DWIDTH 9 0
BBX 9 10 0 -3
BITMAP
7c00
8200
8200
7c00
8200
8200
7c00
0000
0000
0000
ENDCHAR
STARTCHAR U+0039
ENCODING 57
SWIDTH 1125 0
DWIDTH 9 0
BBX 9 10 0 -3
BITMAP
7800
8400
8600
7a00
0200
8400
7800
0000
0000
0000
ENDCHAR
STARTCHAR U+003a
ENCODING 58
SWIDTH 1125 0
DWIDTH 9 0
BBX 9 10 0 -3
BITMAP
0000
3000
3000
0000
0000
3000
3000
0000
0000
0000
ENDCHAR
STARTCHAR U+003b
ENCODING 59
SWIDTH 1125 0
DWIDTH 9 0
BBX 9 10 0 -3
BITMAP
0000
3000
3000
0000
0000
3000
2000
4000
0000
0000
ENDCHAR
STARTCHAR U+003c
ENCODING 60
SWIDTH 1125 0
DWIDTH 9 0
BBX 9 10 0 -3
BITMAP
0200
0800
2000
8000
2000
0800
0200
0000
0000
0000
ENDCHAR
STARTCHAR U+003d
ENCODING 61
SWIDTH 1125 0
DWIDTH 9 0
BBX 9 10 0 -3
BITMAP
0000
0000
fe00
0000
fe00
0000
0000
0000
0000
0000
ENDCHAR
STARTCHAR U+003e
ENCODING 62
SWIDTH 1125 0
DWIDTH 9 0
BBX 9 10 0 -3
BITMAP
8000
2000
0800
0200
0800
2000
8000
0000
0000
0000
ENDCHAR
STARTCHAR U+003f
ENCODING 63
SWIDTH 1125 0
DWIDTH 9 0
BBX 9 10 0 -3
BITMAP
7c00
8200
0c00
1000
1000
0000
1000
0000
0000
0000
ENDCHAR
STARTCHAR U+0040
ENCODING 64
SWIDTH 1125 0
DWIDTH 9 0
BBX 9 10 0 -3
BITMAP
7c00
8200
8a00
9200
9c00
8000
7c00
0000
0000
0000
ENDCHAR
STARTCHAR U+0041
ENCODING 65
SWIDTH 1125 0
DWIDTH 9 0
BBX 9 10 0 -3
BITMAP
1000
2800
4400
8200
fe00
8200
8200
0000
0000
0000
ENDCHAR
STARTCHAR U+0042
ENCODING 66
SWIDTH 1125 0
DWIDTH 9 0
BBX 9 10 0 -3
BITMAP
fc00
4200
4200
7c00
4200
4200
fc00
0000
0000
0000
ENDCHAR
STARTCHAR U+0043
ENCODING 67
SWIDTH 1125 0
DWIDTH 9 0
BBX 9 10 0 -3
BITMAP
3c00
4200
8000
8000
8000
4200
3c00
0000
0000
0000
ENDCHAR
STARTCHAR U+0044
ENCODING 68
SWIDTH 1125 0
DWIDTH 9 0
BBX 9 10 0 -3
BITMAP
f800
4400
4200
4200
4200
4400
f800
0000
0000
0000
ENDCHAR
STARTCHAR U+0045
ENCODING 69
SWIDTH 1125 0
DWIDTH 9 0
BBX 9 10 0 -3
BITMAP
fe00
8000
8000
f800
8000
8000
fe00
0000
0000
0000
ENDCHAR
STARTCHAR U+0046
ENCODING 70
SWIDTH 1125 0
DWIDTH 9 0
BBX 9 10 0 -3
BITMAP
fe00
8000
8000
f800
8000
8000
8000
0000
0000
0000
ENDCHAR
STARTCHAR U+0047
ENCODING 71
SWIDTH 1125 0
DWIDTH 9 0
BBX 9 10 0 -3
BITMAP
3c00
4200
8000
8000
8e00
4200
3c00
0000
0000
0000
ENDCHAR
STARTCHAR U+0048
ENCODING 72
SWIDTH 1125 0
DWIDTH 9 0
BBX 9 10 0 -3
BITMAP
8200
8200
8200
fe00
8200
8200
8200
0000
0000
0000
ENDCHAR
STARTCHAR U+0049
ENCODING 73
SWIDTH 1125 0
DWIDTH 9 0
BBX 9 10 0 -3
BITMAP
7c00
1000
1000
1000
1000
1000
7c00
0000
0000
0000
ENDCHAR
STARTCHAR U+004a
ENCODING 74
SWIDTH 1125 0
DWIDTH 9 0
BBX 9 10 0 -3
BITMAP
0e00
0400
0400
0400
0400
8400
7800
0000
0000
0000
ENDCHAR
STARTCHAR U+004b
ENCODING 75
SWIDTH 1125 0
DWIDTH 9 0
BBX 9 10 0 -3
BITMAP
8200
8c00
b000
c000
b000
8c00
8200
0000
0000
0000
ENDCHAR
STARTCHAR U+004c
ENCODING 76
SWIDTH 1125 0
DWIDTH 9 0
BBX 9 10 0 -3
BITMAP
8000
8000
8000
8000
8000
8000
fe00
0000
0000
0000
ENDCHAR
STARTCHAR U+004d
ENCODING 77
SWIDTH 1125 0
DWIDTH 9 0
BBX 9 10 0 -3
BITMAP
8200
c600
aa00
9200
8200
8200
8200
0000
0000
0000
ENDCHAR
STARTCHAR U+004e
ENCODING 78
SWIDTH 1125 0
DWIDTH 9 0
BBX 9 10 0 -3
BITMAP
8200
c200
a200
9200
8a00
8600
8200
0000
0000
0000
ENDCHAR
STARTCHAR U+004f
ENCODING 79
SWIDTH 1125 0
DWIDTH 9 0
BBX 9 10 0 -3
BITMAP
7c00
8200
8200
8200
8200
8200
7c00
0000
0000
0000
ENDCHAR
STARTCHAR U+0050
ENCODING 80
SWIDTH 1125 0
DWIDTH 9 0
BBX 9 10 0 -3
BITMAP
fc00
8200
8200
fc00
8000
8000
8000
0000
0000
0000
ENDCHAR
STARTCHAR U+0051
ENCODING 81
SWIDTH 1125 0
DWIDTH 9 0
BBX 9 10 0 -3
BITMAP
7c00
8200
8200
8200
8a00
8400
7a00
0000
0000
0000
ENDCHAR
STARTCHAR U+0052
ENCODING 82
SWIDTH 1125 0
DWIDTH 9 0
BBX 9 10 0 -3
BITMAP
fc00
8200
8200
fc00
8800
8400
8200
0000
0000
0000
ENDCHAR
STARTCHAR U+0053
ENCODING 83
SWIDTH 1125 0
DWIDTH 9 0
BBX 9 10 0 -3
BITMAP
7c00
8200
8000
7c00
0200
8200
7c00
0000
0000
0000
ENDCHAR
STARTCHAR U+0054
ENCODING 84
SWIDTH 1125 0
DWIDTH 9 0
BBX 9 10 0 -3
BITMAP
fe00
1000
1000
1000
1000
1000
1000
0000
0000
0000
ENDCHAR
STARTCHAR U+0055
ENCODING 85
SWIDTH 1125 0
DWIDTH 9 0
BBX 9 10 0 -3
BITMAP
8200
8200
8200
8200
8200
8200
7c00
0000
0000
0000
ENDCHAR
STARTCHAR U+0056
ENCODING 86
SWIDTH 1125 0
DWIDTH 9 0
BBX 9 10 0 -3
BITMAP
8200
8200
4400
4400
2800
2800
1000
0000
0000
0000
ENDCHAR
STARTCHAR U+0057
ENCODING 87
SWIDTH 1125 0
DWIDTH 9 0
BBX 9 10 0 -3
BITMAP
8200
8200
8200
9200
9200
aa00
4400
0000
0000
0000
ENDCHAR
STARTCHAR U+0058
ENCODING 88
SWIDTH 1125 0
DWIDTH 9 0
BBX 9 10 0 -3
BITMAP
8200
4400
2800
1000
2800
4400
8200
0000
0000
0000
ENDCHAR
STARTCHAR U+0059
ENCODING 89
SWIDTH 1125 0
DWIDTH 9 0
BBX 9 10 0 -3
BITMAP
8200
4400
2800
1000
1000
1000
1000
0000
0000
0000
ENDCHAR
STARTCHAR U+005a
ENCODING 90
SWIDTH 1125 0
DWIDTH 9 0
BBX 9 10 0 -3
BITMAP
fe00
0400
0800
1000
2000
4000
fe00
0000
0000
0000
ENDCHAR
STARTCHAR U+005b
ENCODING 91
SWIDTH 1125 0
DWIDTH 9 0
BBX 9 10 0 -3
BITMAP
3c00
2000
2000
2000
2000
2000
3c00
0000
0000
0000
ENDCHAR
STARTCHAR U+005c
ENCODING 92
SWIDTH 1125 0
DWIDTH 9 0
BBX 9 10 0 -3
BITMAP
8000
4000
2000
1000
0800
0400
0200
0000
0000
0000
ENDCHAR
STARTCHAR U+005d
ENCODING 93
SWIDTH 1125 0
DWIDTH 9 0
BBX 9 10 0 -3
BITMAP
7800
0800
0800
0800
0800
0800
7800
0000
0000
0000
ENDCHAR
STARTCHAR U+005e
ENCODING 94
SWIDTH 1125 0
DWIDTH 9 0
BBX 9 10 0 -3
BITMAP
1000
2800
4400
8200
0000
0000
0000
0000
0000
0000
ENDCHAR
STARTCHAR U+005f
ENCODING 95
SWIDTH 1125 0
DWIDTH 9 0
BBX 9 10 0 -3
BITMAP
0000
0000
0000
0000
0000
0000
fe00
0000
0000
0000
ENDCHAR
STARTCHAR U+0060
ENCODING 96
SWIDTH 1125 0
DWIDTH 9 0
BBX 9 10 0 -3
BITMAP
3000
1000
0800
0000
0000
0000
0000
0000
0000
0000
ENDCHAR
STARTCHAR U+0061
ENCODING 97
SWIDTH 1125 0
DWIDTH 9 0
BBX 9 10 0 -3
BITMAP
0000
0000
7c00
0200
7e00
8200
7e00
0000
0000
0000
ENDCHAR
STARTCHAR U+0062
ENCODING 98
SWIDTH 1125 0
DWIDTH 9 0
BBX 9 10 0 -3
BITMAP
8000
8000
bc00
c200
8200
c200
bc00
0000
0000
0000
ENDCHAR
STARTCHAR U+0063
ENCODING 99
SWIDTH 1125 0
DWIDTH 9 0
BBX 9 10 0 -3
BITMAP
0000
0000
3c00
4200
8000
4000
3e00
0000
0000
0000
ENDCHAR
STARTCHAR U+0064
ENCODING 100
SWIDTH 1125 0
DWIDTH 9 0
BBX 9 10 0 -3
BITMAP
0200
0200
7a00
8600
8200
8600
7a00
0000
0000
0000
ENDCHAR
STARTCHAR U+0065
ENCODING 101
SWIDTH 1125 0
DWIDTH 9 0
BBX 9 10 0 -3
BITMAP
0000
0000
7c00
8200
fe00
8000
7c00
0000
0000
0000
ENDCHAR
STARTCHAR U+0066
ENCODING 102
SWIDTH 1125 0
DWIDTH 9 0
BBX 9 10 0 -3
BITMAP
1c00
2200
2000
f800
2000
2000
2000
0000
0000
0000
ENDCHAR
STARTCHAR U+0067
ENCODING 103
SWIDTH 1125 0
DWIDTH 9 0
BBX 9 10 0 -3
BITMAP
0000
0200
7a00
8400
8400
7c00
0400
8400
7800
0000
ENDCHAR
STARTCHAR U+0068
ENCODING 104
SWIDTH 1125 0
DWIDTH 9 0
BBX 9 10 0 -3
BITMAP
8000
8000
bc00
c200
8200
8200
8200
0000
0000
0000
ENDCHAR
STARTCHAR U+0069
ENCODING 105
SWIDTH 1125 0
DWIDTH 9 0
BBX 9 10 0 -3
BITMAP
1000
0000
3000
1000
1000
1000
7c00
0000
0000
0000
ENDCHAR
STARTCHAR U+006a
ENCODING 106
SWIDTH 1125 0
DWIDTH 9 0
BBX 9 10 0 -3
BITMAP
0400
0000
0400
0400
0400
0400
8400
8400
7800
0000
ENDCHAR
STARTCHAR U+006b
ENCODING 107
SWIDTH 1125 0
DWIDTH 9 0
BBX 9 10 0 -3
BITMAP
8000
8000
8800
9000
e000
8800
8200
0000
0000
0000
ENDCHAR
STARTCHAR U+006c
ENCODING 108
SWIDTH 1125 0
DWIDTH 9 0
BBX 9 10 0 -3
BITMAP
3000
1000
1000
1000
1000
1000
3800
0000
0000
0000
ENDCHAR
STARTCHAR U+006d
ENCODING 109
SWIDTH 1125 0
DWIDTH 9 0
BBX 9 10 0 -3
BITMAP
0000
0000
c400
aa00
9200
9200
8200
0000
0000
0000
ENDCHAR
STARTCHAR U+006e
ENCODING 110
SWIDTH 1125 0
DWIDTH 9 0
BBX 9 10 0 -3
BITMAP
0000
0000
bc00
c200
8200
8200
8200
0000
0000
0000
ENDCHAR
STARTCHAR U+006f
ENCODING 111
SWIDTH 1125 0
DWIDTH 9 0
BBX 9 10 0 -3
BITMAP
0000
0000
7c00
8200
8200
8200
7c00
0000
0000
0000
ENDCHAR
STARTCHAR U+0070
ENCODING 112
SWIDTH 1125 0
DWIDTH 9 0
BBX 9 10 0 -3
BITMAP
0000
0000
bc00
c200
c200
bc00
8000
8000
8000
0000
ENDCHAR
STARTCHAR U+0071
ENCODING 113
SWIDTH 1125 0
DWIDTH 9 0
BBX 9 10 0 -3
BITMAP
0000
0000
7a00
8600
8600
7a00
0200
0200
0200
0000
ENDCHAR
STARTCHAR U+0072
ENCODING 114
SWIDTH 1125 0
DWIDTH 9 0
BBX 9 10 0 -3
BITMAP
0000
0000
9c00
6200
4000
4000
4000
0000
0000
0000
ENDCHAR
STARTCHAR U+0073
ENCODING 115
SWIDTH 1125 0
DWIDTH 9 0
BBX 9 10 0 -3
BITMAP
0000
0000
7c00
8000
7c00
0200
fc00
0000
0000
0000
ENDCHAR
STARTCHAR U+0074
ENCODING 116
SWIDTH 1125 0
DWIDTH 9 0
BBX 9 10 0 -3
BITMAP
2000
2000
f800
2000
2000
2400
1800
0000
0000
0000
ENDCHAR
STARTCHAR U+0075
ENCODING 117
SWIDTH 1125 0
DWIDTH 9 0
BBX 9 10 0 -3
BITMAP
0000
0000
8400
8400
8400
8400
7a00
0000
0000
0000
ENDCHAR
STARTCHAR U+0076
ENCODING 118
SWIDTH 1125 0
DWIDTH 9 0
BBX 9 10 0 -3
BITMAP
0000
0000
8200
8200
4400
2800
1000
0000
0000
0000
ENDCHAR
STARTCHAR U+0077
ENCODING 119
SWIDTH 1125 0
DWIDTH 9 0
BBX 9 10 0 -3
BITMAP
0000
0000
8200
8200
9200
aa00
4400
0000
0000
0000
ENDCHAR
STARTCHAR U+0078
ENCODING 120
SWIDTH 1125 0
DWIDTH 9 0
BBX 9 10 0 -3
BITMAP
0000
0000
8400
4800
3000
4800
8400
0000
0000
0000
ENDCHAR
STARTCHAR U+0079
ENCODING 121
SWIDTH 1125 0
DWIDTH 9 0
BBX 9 10 0 -3
BITMAP
0000
0000
8400
8400
8c00
7400
0400
8400
7800
0000
ENDCHAR
STARTCHAR U+007a
ENCODING 122
SWIDTH 1125 0
DWIDTH 9 0
BBX 9 10 0 -3
BITMAP
0000
0000
fe00
0400
1800
2000
fe00
0000
0000
0000
ENDCHAR
STARTCHAR U+007b
ENCODING 123
SWIDTH 1125 0
DWIDTH 9 0
BBX 9 10 0 -3
BITMAP
0e00
1000
1000
6000
1000
1000
0e00
0000
0000
0000
ENDCHAR
STARTCHAR U+007c
ENCODING 124
SWIDTH 1125 0
DWIDTH 9 0
BBX 9 10 0 -3
BITMAP
1000
1000
1000
0000
0000
1000
1000
1000
0000
0000
ENDCHAR
STARTCHAR U+007d
ENCODING 125
SWIDTH 1125 0
DWIDTH 9 0
BBX 9 10 0 -3
BITMAP
e000
1000
1000
0c00
1000
1000
e000
0000
0000
0000
ENDCHAR
STARTCHAR U+007e
ENCODING 126
SWIDTH 1125 0
DWIDTH 9 0
BBX 9 10 0 -3
BITMAP
6200
9200
8c00
0000
0000
0000
0000
0000
0000
0000
ENDCHAR
STARTCHAR U+007f
ENCODING 127
SWIDTH 1125 0
DWIDTH 9 0
BBX 9 10 0 -3
BITMAP
0000
0000
0000
0000
0000
0000
0000
0000
0000
0000
ENDCHAR
ENDFONT
